<svg width="40" height="40" viewBox="0 0 40 40" fill="none" xmlns="http://www.w3.org/2000/svg">
<path d="M28.2031 30.9375C27.3402 30.9375 26.6406 31.637 26.6406 32.5V36.875H4.29688V3.125H26.6406V7.5C26.6406 8.36297 27.3402 9.0625 28.2031 9.0625C29.0661 9.0625 29.7656 8.36297 29.7656 7.5V1.5625C29.7656 0.699531 29.0661 0 28.2031 0H2.73438C1.87141 0 1.17188 0.699531 1.17188 1.5625V38.4375C1.17188 39.3005 1.87141 40 2.73438 40H28.2031C29.0661 40 29.7656 39.3005 29.7656 38.4375V32.5C29.7656 31.637 29.0661 30.9375 28.2031 30.9375Z" fill="white"/>
<path d="M38.3702 18.8952L34.1717 14.6967C33.5616 14.0865 32.5723 14.0866 31.9621 14.6967C31.3518 15.3069 31.3518 16.2963 31.9621 16.9065L33.4931 18.4375L20.5496 18.4374C19.6867 18.4374 18.9871 19.137 18.9871 19.9999C18.9871 20.8629 19.6866 21.5624 20.5496 21.5624L33.4933 21.5625L31.9621 23.0937C31.3519 23.7038 31.3519 24.6931 31.9621 25.3034C32.5723 25.9136 33.5617 25.9134 34.1718 25.3033L38.3702 21.1048C38.3703 21.1047 38.3705 21.1045 38.3706 21.1045C38.6849 20.7898 38.8166 20.4262 38.8279 20C38.8279 19.5788 38.6489 19.1738 38.3702 18.8952Z" fill="white"/>
</svg>
