<svg width="37" height="37" viewBox="0 0 37 37" fill="none" xmlns="http://www.w3.org/2000/svg">
<path d="M31.6041 13.875H29.2916V10.7916C29.2916 4.84107 24.4506 0 18.5 0C12.5494 0 7.70836 4.84107 7.70836 10.7916V13.875H5.39586C4.96978 13.875 4.625 14.2198 4.625 14.6459V33.9167C4.625 35.6172 6.0078 37 7.70836 37H29.2917C30.9922 37 32.375 35.6172 32.375 33.9166V14.6459C32.375 14.2198 32.0302 13.875 31.6041 13.875ZM20.808 29.9774C20.8321 30.195 20.7621 30.4133 20.6161 30.5767C20.47 30.74 20.2608 30.8334 20.0417 30.8334H16.9584C16.7393 30.8334 16.53 30.74 16.384 30.5767C16.2379 30.4133 16.1679 30.195 16.1921 29.9774L16.6783 25.6046C15.8887 25.0303 15.4167 24.1217 15.4167 23.125C15.4167 21.4245 16.7995 20.0416 18.5001 20.0416C20.2006 20.0416 21.5834 21.4244 21.5834 23.125C21.5834 24.1217 21.1115 25.0303 20.3218 25.6046L20.808 29.9774ZM24.6666 13.875H12.3334V10.7916C12.3334 7.3914 15.0998 4.625 18.5 4.625C21.9002 4.625 24.6666 7.3914 24.6666 10.7916V13.875Z" fill="black"/>
</svg>
